# xmcd CD database file
#
# Track frame offsets:
#	150
#	16441
#	31528
#	52068
#	70843
#	87926
#	103888
#	122108
#	149746
#	170743
#
# Disc length: 2430 seconds
#
# Revision: 0
# Processed by: cddbd v1.5.1PL0 Copyright (c) Steve Scherf et al.
# Submitted via: CDex 1.51
#
DISCID=8f097c0a
DTITLE=Mad-Mouse Chicago I.R.A. - bio - corridor again
DYEAR=1995
DGENRE=Jazz
TTITLE0=Svaty sniper
TTITLE1=WC-Man
TTITLE2=Esprit De Corps
TTITLE3=Indian Tonic Water
TTITLE4=Ritual Comeback
TTITLE5=Chicago Prohibition (Prohibited Art)
TTITLE6=Tancim na telecich nozkach
TTITLE7=R.A.F.
TTITLE8=Gruppensex
TTITLE9=New La Paloma
EXTD=YEAR: 1995
EXTT0=
EXTT1=
EXTT2=
EXTT3=
EXTT4=
EXTT5=
EXTT6=
EXTT7=
EXTT8=
EXTT9=
PLAYORDER=
